HIERARCHY
ROOT SpineBase
{
  OFFSET 0.000000 0.000000 0.000000
  CHANNELS 6 Xposition Yposition Zposition Zrotation Xrotation Yrotation
  JOINT SpineMid
  {
    OFFSET 0.000000 34.532779 0.000000
    CHANNELS 3 Zrotation Xrotation Yrotation
    JOINT SpineShoulder
    {
      OFFSET -0.374488 25.546037 -0.885758
      CHANNELS 3 Zrotation Xrotation Yrotation
      JOINT Neck
      {
        OFFSET -0.264018 8.411429 -0.647486
        CHANNELS 3 Zrotation Xrotation Yrotation
        JOINT Head
        {
          OFFSET 0.553847 10.513769 3.266369
          CHANNELS 3 Zrotation Xrotation Yrotation
          End Site
          {
            OFFSET 0 0 0
          }
        }
      }
      JOINT ShoulderLeft
      {
        OFFSET -13.816058 -7.446421 -9.065032
        CHANNELS 3 Zrotation Xrotation Yrotation
        JOINT ElbowLeft
        {
          OFFSET -5.155739 -27.832517 0.292616
          CHANNELS 3 Zrotation Xrotation Yrotation
          JOINT WristLeft
          {
            OFFSET -3.028677 -19.429870 6.298678
            CHANNELS 3 Zrotation Xrotation Yrotation
            JOINT HandLeft
            {
              OFFSET 0.709970 -5.581322 2.873707
              CHANNELS 3 Zrotation Xrotation Yrotation
              JOINT HandTipLeft
              {
                OFFSET -0.054916 -6.874696 0.555870
                CHANNELS 3 Zrotation Xrotation Yrotation
                End Site
                {
                  OFFSET 0 0 0
                }
              }
              JOINT ThumbLeft
              {
                OFFSET -3.867845 0.365324 -1.227337
                CHANNELS 3 Zrotation Xrotation Yrotation
                End Site
                {
                  OFFSET 0 0 0
                }
              }
            }
          }
        }
      }
      JOINT ShoulderRight
      {
        OFFSET 11.627883 -4.906940 -5.126307
        CHANNELS 3 Zrotation Xrotation Yrotation
        JOINT ElbowRight
        {
          OFFSET 3.381778 -28.521519 -3.037188
          CHANNELS 3 Zrotation Xrotation Yrotation
          JOINT WristRight
          {
            OFFSET -2.755833 -24.177677 -3.672879
            CHANNELS 3 Zrotation Xrotation Yrotation
            JOINT HandRight
            {
              OFFSET 0.957712 -3.460146 2.320854
              CHANNELS 3 Zrotation Xrotation Yrotation
              JOINT HandTipRight
              {
                OFFSET 1.164311 -4.029412 0.873342
                CHANNELS 3 Zrotation Xrotation Yrotation
                End Site
                {
                  OFFSET 0 0 0
                }
              }
              JOINT ThumbRight
              {
                OFFSET -3.891899 0.523201 -3.223938
                CHANNELS 3 Zrotation Xrotation Yrotation
                End Site
                {
                  OFFSET 0 0 0
                }
              }
            }
          }
        }
      }
    }
  }
  JOINT HipLeft
  {
    OFFSET -7.968847 0.914704 -4.635854
    CHANNELS 3 Zrotation Xrotation Yrotation
    JOINT KneeLeft
    {
      OFFSET 3.775549 -35.107754 6.066942
      CHANNELS 3 Zrotation Xrotation Yrotation
      JOINT AnkleLeft
      {
        OFFSET -2.768444 -28.992008 -0.530889
        CHANNELS 3 Zrotation Xrotation Yrotation
        JOINT FootLeft
        {
          OFFSET 0.364992 -2.636957 -12.403041
          CHANNELS 3 Zrotation Xrotation Yrotation
          End Site
          {
            OFFSET 0 0 0
          }
        }
      }
    }
  }
  JOINT HipRight
  {
    OFFSET 5.221277 1.560673 -2.503249
    CHANNELS 3 Zrotation Xrotation Yrotation
    JOINT KneeRight
    {
      OFFSET 5.341810 -32.350098 8.793122
      CHANNELS 3 Zrotation Xrotation Yrotation
      JOINT AnkleRight
      {
        OFFSET 6.030671 -35.060809 -1.506704
        CHANNELS 3 Zrotation Xrotation Yrotation
        JOINT FootRight
        {
          OFFSET 0.107463 -2.678661 -12.326683
          CHANNELS 3 Zrotation Xrotation Yrotation
          End Site
          {
            OFFSET 0 0 0
          }
        }
      }
    }
  }
}
MOTION
Frames: 9
Frame Time: 0.033333
91.122199 77.331832 239.885866 -0.000000 0.000000 -9.184215 -0.000000 0.000000 9.184215 -0.000000 0.000000 0.000000 -0.000000 0.000000 0.000000 0.000000 0.000000 0.000000 -0.000000 0.000000 0.000000 -0.000000 0.000000 0.000000 -0.000000 0.000000 0.000000 -0.000000 0.000000 0.000000 0.000000 0.000000 0.000000 0.000000 0.000000 0.000000 -0.000000 0.000000 0.000000 -0.000000 0.000000 0.000000 -0.000000 0.000000 0.000000 -0.000000 0.000000 0.000000 0.000000 0.000000 0.000000 0.000000 0.000000 0.000000 -0.000000 0.000000 9.184215 -0.000000 0.000000 0.000000 -0.000000 0.000000 0.000000 0.000000 0.000000 0.000000 -0.000000 0.000000 9.184215 -0.000000 0.000000 0.000000 -0.000000 0.000000 0.000000 0.000000 0.000000 0.000000
90.643365 77.354269 240.415223 -0.061748 -0.275979 -9.068228 0.017480 0.282262 9.068036 -0.000000 0.000000 0.000000 -0.000000 0.000000 0.000000 0.000000 0.000000 0.000000 -0.000000 0.000000 0.000000 0.807734 -0.626960 0.363754 1.848928 3.449592 1.283721 -1.189417 -1.396046 -1.634131 0.000000 0.000000 0.000000 0.000000 0.000000 0.000000 -0.000000 0.000000 0.000000 2.519589 -2.623774 -0.026148 -8.867889 5.697128 -2.886980 3.226755 -2.736922 2.830223 0.000000 0.000000 0.000000 0.000000 0.000000 0.000000 -1.688168 0.621507 8.864088 4.332180 -0.927144 0.244954 -2.697565 0.339933 0.024892 0.000000 0.000000 0.000000 0.017480 0.282262 9.068036 -2.302947 -0.928573 -0.079711 2.301957 0.931026 0.042341 0.000000 0.000000 0.000000
90.277825 77.368050 240.934599 -0.123384 -0.514812 -8.983829 0.041482 0.527763 8.983083 -0.000000 0.000000 0.000000 -0.000000 0.000000 0.000000 0.000000 0.000000 0.000000 -0.292390 -1.074624 0.193144 1.703038 -0.001046 0.411582 3.319009 6.120070 2.189650 -2.127589 -2.377838 -2.934869 0.000000 0.000000 0.000000 0.000000 0.000000 0.000000 -0.869389 0.157368 0.112519 5.537005 -5.072049 -0.047628 -18.314931 11.756604 -5.216264 7.864123 -6.043595 6.219265 0.000000 0.000000 0.000000 0.000000 0.000000 0.000000 -3.190462 1.171988 8.617688 7.983886 -1.632058 0.524485 -4.878837 0.551596 0.059971 0.000000 0.000000 0.000000 0.041482 0.527763 8.983083 -4.433152 -1.825474 -0.195512 4.429174 1.835120 0.053877 0.000000 0.000000 0.000000
90.025579 77.373177 241.443996 -0.184852 -0.716297 -8.930845 0.071421 0.736308 8.929231 -0.000000 0.000000 0.000000 -0.000000 0.000000 0.000000 0.000000 0.000000 0.000000 -0.514515 -1.502214 0.265875 2.386603 0.107596 0.515686 4.283613 7.941446 2.732694 -2.832063 -2.935631 -3.846704 0.000000 0.000000 0.000000 0.000000 0.000000 0.000000 -1.235206 0.216913 0.159769 7.687236 -7.069254 0.055316 -28.074911 17.880130 -6.742202 13.445065 -9.561842 9.965486 0.000000 0.000000 0.000000 0.000000 0.000000 0.000000 -4.497429 1.643317 8.437689 10.985751 -2.128183 0.800251 -6.587462 0.644137 0.095785 0.000000 0.000000 0.000000 0.071421 0.736308 8.929231 -6.263568 -2.643960 -0.333577 6.254863 2.664554 0.043275 0.000000 0.000000 0.000000
89.886629 77.369648 241.943412 -0.246102 -0.880300 -8.909285 -0.051036 0.080666 8.886446 0.283736 0.792809 0.019501 -0.000000 0.000000 0.000000 0.000000 0.000000 0.000000 -0.787530 -1.858439 0.322770 3.017413 0.242103 0.581228 4.670168 8.875231 2.937200 -3.350256 -3.092098 -4.342384 0.000000 0.000000 0.000000 0.000000 0.000000 0.000000 -1.555011 0.263844 0.200738 9.432032 -8.707262 0.190896 -37.635810 23.584616 -7.323251 19.171356 -12.985783 13.603214 0.000000 0.000000 0.000000 0.000000 0.000000 0.000000 -5.601096 2.029029 8.317356 13.364461 -2.429224 1.043779 -7.861694 0.625191 0.126603 0.000000 0.000000 0.000000 -0.135536 1.820272 9.041027 -7.595284 -4.252915 -0.727215 7.841654 3.028806 -0.840798 0.000000 0.000000 0.000000
89.860972 77.357464 242.432849 -0.307079 -1.006757 -8.919335 -0.065456 0.086985 8.891628 -0.010865 0.071242 -0.028652 -0.032027 -0.332349 0.240806 0.000000 0.000000 0.000000 -0.741026 -1.305703 0.432370 3.619454 0.386190 0.620122 4.440840 8.914937 2.820108 -3.731998 -2.886656 -4.410139 0.000000 0.000000 0.000000 0.000000 0.000000 0.000000 -1.461070 1.135947 0.314077 10.782475 -9.999030 0.330393 -46.358362 28.396010 -7.069114 24.100911 -16.231760 16.518935 0.000000 0.000000 0.000000 0.000000 0.000000 0.000000 -6.494701 2.324177 8.250895 15.141483 -2.546975 1.234872 -8.574225 0.279972 -0.631706 0.000000 0.000000 0.000000 -0.288644 2.437688 9.109840 -8.396533 -5.278585 -0.990697 8.779343 3.528237 -1.058351 0.000000 0.000000 0.000000
90.033298 77.284029 242.970444 -0.355528 -1.110259 -8.901556 -0.075744 0.084424 8.869719 -0.018810 0.073760 -0.033292 -0.630991 -0.793481 0.485838 0.000000 0.000000 0.000000 -1.011551 -1.401912 0.471345 3.928378 0.115279 0.642913 3.509405 9.433884 2.299760 -5.672529 -3.115972 -4.333237 0.000000 0.000000 0.000000 0.000000 0.000000 0.000000 -1.519023 1.322940 0.352064 12.002506 -11.536165 0.556938 -60.621294 36.636899 -3.907980 29.722094 -23.955241 18.888444 0.000000 0.000000 0.000000 0.000000 0.000000 0.000000 -7.405820 2.614616 8.162518 16.728149 -2.541911 1.409791 -9.209884 -0.029468 -0.811567 0.000000 0.000000 0.000000 -0.638906 3.563449 9.228271 -8.015648 -6.534058 -1.308444 8.621356 3.722295 -1.215888 0.000000 0.000000 0.000000
90.279587 77.236832 243.465833 -0.410680 -1.164558 -8.978279 -0.098697 0.074081 8.942377 -0.035604 0.071837 -0.038793 -1.114259 -1.284221 0.699795 0.000000 0.000000 0.000000 -1.327349 -1.444848 0.493135 4.168594 0.402501 0.529003 2.100797 6.680712 1.492540 -4.239961 -1.200209 -3.026311 0.000000 0.000000 0.000000 0.000000 0.000000 0.000000 -1.372171 1.316566 0.346635 12.555722 -12.308489 0.708429 -67.193402 38.419249 -3.236520 25.591901 -28.884240 15.095669 0.000000 0.000000 0.000000 0.000000 0.000000 0.000000 -7.765486 2.713176 8.205796 17.162564 -2.133790 1.409104 -9.234643 -0.564170 -0.939277 0.000000 0.000000 0.000000 -0.854316 4.437337 9.429868 -7.321647 -7.563535 -1.551609 8.041824 3.916058 -1.272937 0.000000 0.000000 0.000000
90.579012 77.221825 243.865979 -0.480280 -1.125074 -9.214582 -0.126378 0.053439 9.175277 -0.055682 0.062415 -0.044259 -1.505266 -1.961744 0.889713 0.000000 0.000000 0.000000 -1.732807 -1.556474 0.508252 5.175297 0.540362 0.634613 -0.509934 4.604870 0.182463 -2.628943 0.842135 -1.591666 0.000000 0.000000 0.000000 0.000000 0.000000 0.000000 -1.193672 1.138146 0.324456 12.432657 -12.401937 0.759084 -66.039174 37.854901 -3.473935 18.978389 -31.643129 9.582839 0.000000 0.000000 0.000000 0.000000 0.000000 0.000000 -7.360685 2.483735 8.442428 15.919992 -1.458715 1.222262 -8.285079 -1.071554 -1.098578 0.000000 0.000000 0.000000 -1.218562 5.083627 9.734649 -6.003738 -8.035970 -1.547403 7.047537 3.649313 -1.348210 0.000000 0.000000 0.000000
